<svg id="Layer_1" data-name="Layer 1" xmlns="http://www.w3.org/2000/svg" viewBox="0 0 446.3 177.53"><defs><style>.cls-1,.cls-2,.cls-3{fill:#808285;}.cls-1{opacity:0.11;}.cls-2{opacity:0.7;}.cls-3{opacity:0.6;}</style></defs><rect class="cls-1" width="446.3" height="177.53" rx="5.67"/><rect class="cls-2" x="5.79" y="4.79" width="25.7" height="14.17" rx="2.81"/><rect class="cls-2" x="35.88" y="4.79" width="25.7" height="14.17" rx="2.81"/><rect class="cls-2" x="67.25" y="4.79" width="25.7" height="14.17" rx="2.81"/><rect class="cls-2" x="98.63" y="4.79" width="25.7" height="14.17" rx="2.81"/><rect class="cls-2" x="130" y="4.79" width="25.7" height="14.17" rx="2.81"/><rect class="cls-2" x="161.37" y="4.79" width="25.7" height="14.17" rx="2.81"/><rect class="cls-2" x="192.74" y="4.79" width="25.7" height="14.17" rx="2.81"/><rect class="cls-2" x="224.11" y="4.79" width="25.7" height="14.17" rx="2.81"/><rect class="cls-2" x="255.48" y="4.79" width="25.7" height="14.17" rx="2.81"/><rect class="cls-2" x="286.85" y="4.79" width="25.7" height="14.17" rx="2.81"/><rect class="cls-2" x="318.23" y="4.79" width="25.7" height="14.17" rx="2.81"/><rect class="cls-2" x="349.6" y="4.79" width="25.7" height="14.17" rx="2.81"/><rect class="cls-2" x="380.97" y="4.79" width="25.7" height="14.17" rx="2.81"/><rect class="cls-2" x="412.34" y="4.79" width="25.7" height="14.17" rx="2.81"/><rect class="cls-3" x="51.07" y="53.04" width="24.54" height="25.51" rx="3.13"/><rect class="cls-3" x="111.48" y="53.04" width="24.54" height="25.51" rx="3.13"/><rect class="cls-3" x="35.99" y="23.24" width="24.54" height="25.51" rx="3.13"/><rect class="cls-3" x="66.2" y="23.24" width="24.54" height="25.51" rx="3.13"/><rect class="cls-3" x="96.41" y="23.24" width="24.54" height="25.51" rx="3.13"/><rect class="cls-3" x="126.62" y="23.24" width="24.54" height="25.51" rx="3.13"/><rect class="cls-3" x="156.82" y="23.24" width="24.54" height="25.51" rx="3.13"/><rect class="cls-3" x="187.03" y="23.24" width="24.54" height="25.51" rx="3.13"/><rect class="cls-3" x="217.24" y="23.24" width="24.54" height="25.51" rx="3.13"/><rect class="cls-3" x="247.44" y="23.24" width="24.54" height="25.51" rx="3.13"/><rect class="cls-3" x="277.65" y="23.24" width="24.54" height="25.51" rx="3.13"/><rect class="cls-3" x="307.86" y="23.24" width="24.54" height="25.51" rx="3.13"/><rect class="cls-3" x="338.06" y="23.24" width="24.54" height="25.51" rx="3.13"/><rect class="cls-3" x="368.27" y="23.24" width="24.54" height="25.51" rx="3.13"/><path class="cls-3" d="M462.78,204.9H493.3c2.88,0,5.21,1.4,5.21,3.13v19.26c0,1.73-2.33,3.13-5.21,3.13H462.78c-2.88,0-5.21-1.4-5.21-3.13V208C457.57,206.3,459.9,204.9,462.78,204.9Z" transform="translate(-59.68 -181.66)"/><rect class="cls-3" x="81.27" y="53.04" width="24.54" height="25.51" rx="3.13"/><rect class="cls-3" x="140.6" y="53.04" width="24.54" height="25.51" rx="3.13"/><rect class="cls-3" x="201.01" y="53.04" width="24.54" height="25.51" rx="3.13"/><rect class="cls-3" x="170.81" y="53.04" width="24.54" height="25.51" rx="3.13"/><rect class="cls-3" x="230.99" y="53.04" width="24.54" height="25.51" rx="3.13"/><rect class="cls-3" x="291.39" y="53.04" width="24.54" height="25.51" rx="3.13"/><rect class="cls-3" x="261.19" y="53.04" width="24.54" height="25.51" rx="3.13"/><rect class="cls-3" x="321.92" y="53.04" width="24.54" height="25.51" rx="3.13"/><rect class="cls-3" x="57.9" y="82.84" width="24.54" height="25.51" rx="3.13"/><path class="cls-3" d="M71.41,264h34.74c3.28,0,5.94,1.4,5.94,3.12v19.26c0,1.73-2.66,3.13-5.94,3.13H71.41c-3.28,0-5.94-1.4-5.94-3.13V267.11C65.47,265.39,68.13,264,71.41,264Z" transform="translate(-59.68 -181.66)"/><rect class="cls-3" x="118.3" y="82.84" width="24.54" height="25.51" rx="3.13"/><rect class="cls-3" x="88.1" y="82.84" width="24.54" height="25.51" rx="3.13"/><rect class="cls-3" x="147.43" y="82.84" width="24.54" height="25.51" rx="3.13"/><rect class="cls-3" x="207.83" y="82.84" width="24.54" height="25.51" rx="3.13"/><rect class="cls-3" x="177.63" y="82.84" width="24.54" height="25.51" rx="3.13"/><rect class="cls-3" x="237.81" y="82.84" width="24.54" height="25.51" rx="3.13"/><rect class="cls-3" x="104.05" y="111.84" width="24.54" height="25.51" rx="3.13"/><rect class="cls-3" x="73.85" y="111.84" width="24.54" height="25.51" rx="3.13"/><path class="cls-3" d="M68.59,323.4H86.88A3.36,3.36,0,0,1,90,327V348.8a3.36,3.36,0,0,1-3.13,3.54H68.59a3.36,3.36,0,0,1-3.12-3.54V327A3.36,3.36,0,0,1,68.59,323.4Z" transform="translate(-59.68 -181.66)"/><path class="cls-3" d="M98.55,323.15h18.29a3.36,3.36,0,0,1,3.12,3.54v21.85a3.36,3.36,0,0,1-3.12,3.55H98.55a3.35,3.35,0,0,1-3.12-3.55V326.69A3.35,3.35,0,0,1,98.55,323.15Z" transform="translate(-59.68 -181.66)"/><path class="cls-3" d="M128.76,323.15h18.29a3.36,3.36,0,0,1,3.13,3.54v21.85a3.36,3.36,0,0,1-3.13,3.55H128.76a3.36,3.36,0,0,1-3.12-3.55V326.69A3.36,3.36,0,0,1,128.76,323.15Z" transform="translate(-59.68 -181.66)"/><path class="cls-3" d="M159,323.15h24.39c2.3,0,4.17,1.59,4.17,3.54v21.85c0,2-1.87,3.55-4.17,3.55H159c-2.3,0-4.17-1.59-4.17-3.55V326.69C154.87,324.74,156.74,323.15,159,323.15Z" transform="translate(-59.68 -181.66)"/><rect class="cls-3" x="133.18" y="111.84" width="24.54" height="25.51" rx="3.13"/><rect class="cls-3" x="193.58" y="111.84" width="24.54" height="25.51" rx="3.13"/><rect class="cls-3" x="163.38" y="111.84" width="24.54" height="25.51" rx="3.13"/><rect class="cls-3" x="223.56" y="111.84" width="24.54" height="25.51" rx="3.13"/><rect class="cls-3" x="253.82" y="111.84" width="24.54" height="25.51" rx="3.13"/><rect class="cls-3" x="283.82" y="111.84" width="24.54" height="25.51" rx="3.13"/><path class="cls-3" d="M347.7,323.15h24.55a3.94,3.94,0,0,1,4.2,3.63v22.36a4,4,0,0,1-4.2,3.63H347.7a4,4,0,0,1-4.2-3.63V326.78A3.94,3.94,0,0,1,347.7,323.15Z" transform="translate(-59.68 -181.66)"/><rect class="cls-3" x="314.46" y="111.84" width="24.54" height="25.51" rx="3.13"/><rect class="cls-3" x="344.97" y="111.84" width="24.54" height="25.51" rx="3.13"/><rect class="cls-3" x="298.22" y="82.84" width="24.54" height="25.51" rx="3.13"/><rect class="cls-3" x="268.02" y="82.84" width="24.54" height="25.51" rx="3.13"/><rect class="cls-3" x="328.75" y="82.84" width="24.54" height="25.51" rx="3.13"/><rect class="cls-3" x="360.15" y="82.84" width="24.54" height="25.51" rx="3.13"/><path class="cls-3" d="M456,264.5h36.28c3.42,0,6.2,1.4,6.2,3.12v19.26c0,1.73-2.78,3.13-6.2,3.13H456c-3.42,0-6.2-1.4-6.2-3.13V267.62C449.83,265.9,452.61,264.5,456,264.5Z" transform="translate(-59.68 -181.66)"/><rect class="cls-3" x="413.5" y="53.04" width="24.54" height="25.51" rx="3.13"/><rect class="cls-3" x="352.45" y="53.04" width="24.54" height="25.51" rx="3.13"/><rect class="cls-3" x="382.98" y="53.04" width="24.54" height="25.51" rx="3.13"/><path class="cls-3" d="M70.16,234.7H99.44c2.77,0,5,1.4,5,3.13v19.26c0,1.72-2.24,3.12-5,3.12H70.16c-2.76,0-5-1.4-5-3.12V237.83C65.16,236.1,67.4,234.7,70.16,234.7Z" transform="translate(-59.68 -181.66)"/><rect class="cls-3" x="5.79" y="23.24" width="24.54" height="25.51" rx="3.13"/><rect class="cls-3" x="5.79" y="112.34" width="61.79" height="24.51" rx="1.99"/><rect class="cls-3" x="375.3" y="113.17" width="63.08" height="24.51" rx="2.36"/><rect class="cls-3" x="133.18" y="141.49" width="145.18" height="28.94" rx="3.69"/><path class="cls-3" d="M443.81,323.74h21.81a1.6,1.6,0,0,1,1.59,1.6v11.4h-25v-11.4A1.6,1.6,0,0,1,443.81,323.74Z" transform="translate(-59.68 -181.66)"/><path class="cls-3" d="M442,340h25v11.2a1.81,1.81,0,0,1-1.8,1.8H443.8a1.81,1.81,0,0,1-1.8-1.8Z" transform="translate(-59.68 -181.66)"/><path class="cls-3" d="M413.37,339.28h21.57a1.81,1.81,0,0,1,1.8,1.81v9.38a1.8,1.8,0,0,1-1.8,1.81H413.55a1.81,1.81,0,0,1-1.81-1.81V340.9A1.63,1.63,0,0,1,413.37,339.28Z" transform="translate(-59.68 -181.66)"/><path class="cls-3" d="M474.58,339.28h21.57a1.81,1.81,0,0,1,1.8,1.81v9.38a1.8,1.8,0,0,1-1.8,1.81H474.76a1.81,1.81,0,0,1-1.81-1.81V340.9A1.63,1.63,0,0,1,474.58,339.28Z" transform="translate(-59.68 -181.66)"/><path class="cls-3" d="M384.73,323.49H403a3.36,3.36,0,0,1,3.13,3.54v21.85a3.36,3.36,0,0,1-3.13,3.55H384.73a3.36,3.36,0,0,1-3.13-3.55V327A3.36,3.36,0,0,1,384.73,323.49Z" transform="translate(-59.68 -181.66)"/></svg>