<svg id="Layer_1" data-name="Layer 1" xmlns="http://www.w3.org/2000/svg" viewBox="0 0 329.34 49.51"><defs><style>.cls-1,.cls-3{fill:#231f20;}.cls-1,.cls-2{stroke:#231f20;stroke-miterlimit:10;}.cls-2,.cls-4{fill:#fff;}</style></defs><rect class="cls-1" x="0.5" y="0.5" width="328.34" height="48.51"/><rect class="cls-2" x="0.5" y="0.5" width="112.34" height="48.51"/><path class="cls-3" d="M152.67,174.8h7.77a17.38,17.38,0,0,1,3,.26A7.51,7.51,0,0,1,166,176a5.07,5.07,0,0,1,1.76,1.83,6,6,0,0,1,.65,2.93,5.87,5.87,0,0,1-2,4.79,8.9,8.9,0,0,1-5.79,1.64h-6.41v9h-1.56Zm1.56,10.8h6.46a10.77,10.77,0,0,0,2.8-.31,4.86,4.86,0,0,0,1.88-.92,3.46,3.46,0,0,0,1.07-1.49,5.9,5.9,0,0,0,.33-2.06,4.71,4.71,0,0,0-.5-2.31,3.5,3.5,0,0,0-1.35-1.35,5.59,5.59,0,0,0-2-.64,17.48,17.48,0,0,0-2.34-.15h-6.39Z" transform="translate(-137.31 -159.2)"/><path class="cls-3" d="M175.67,196.19h-1.56V174.8h1.56Z" transform="translate(-137.31 -159.2)"/><path class="cls-3" d="M183.1,174.8l6.82,9.4,6.81-9.4h1.94l-7.79,10.71,7.77,10.68h-1.92l-6.81-9.36-6.82,9.36h-1.91L189,185.51l-7.79-10.71Z" transform="translate(-137.31 -159.2)"/><path class="cls-3" d="M218.64,196.19H203.19V174.8h14.92v1.57H204.75v7.91h12.52v1.56H204.75v8.79h13.89Z" transform="translate(-137.31 -159.2)"/><path class="cls-3" d="M236.6,196.19H224V174.8h1.56v19.83h11Z" transform="translate(-137.31 -159.2)"/><path class="cls-4" d="M276.37,196.19H274.5l-2.62-6.88H261.35c-.37,1.09-.78,2.23-1.23,3.43s-.86,2.36-1.27,3.45h-1.66l2.08-5.43q1-2.65,2-5.28c.68-1.75,1.36-3.52,2.05-5.29l2.08-5.41h2.2Zm-4.94-8.11-5-11.89-4.71,11.89Z" transform="translate(-137.31 -159.2)"/><path class="cls-4" d="M297.38,196.19h-1.72l-2.13-5.68a13,13,0,0,0-.69-1.55,5.58,5.58,0,0,0-.89-1.26,4,4,0,0,0-1.16-.85,3.66,3.66,0,0,0-1.53-.31h-7.48v9.65h-1.57V174.8h9.63a13.13,13.13,0,0,1,2.61.25,6.36,6.36,0,0,1,2.25.87,4.51,4.51,0,0,1,1.57,1.72,6,6,0,0,1,.58,2.83,7.16,7.16,0,0,1-.26,2,5,5,0,0,1-.8,1.66,4.86,4.86,0,0,1-1.37,1.25,6.13,6.13,0,0,1-1.94.75,8.35,8.35,0,0,1,1,.9,5.4,5.4,0,0,1,.67.92,7.08,7.08,0,0,1,.51,1.07l.51,1.35ZM281.78,185h7.42a13.23,13.23,0,0,0,2.71-.24,4.63,4.63,0,0,0,1.87-.77,3.15,3.15,0,0,0,1.08-1.39,5.52,5.52,0,0,0,.35-2.11,3.54,3.54,0,0,0-1.39-3.16,7.48,7.48,0,0,0-4.17-.94h-7.87Z" transform="translate(-137.31 -159.2)"/><path class="cls-4" d="M318.19,180.53a4.89,4.89,0,0,0-.8-1.79,6.09,6.09,0,0,0-1.46-1.45,7.12,7.12,0,0,0-2-1,8.11,8.11,0,0,0-2.45-.36,9.07,9.07,0,0,0-3.37.61,6.78,6.78,0,0,0-2.58,1.79,8,8,0,0,0-1.64,2.95,13.11,13.11,0,0,0-.58,4.11,13.29,13.29,0,0,0,.58,4.13,8.33,8.33,0,0,0,1.64,3,6.88,6.88,0,0,0,2.56,1.83,8.45,8.45,0,0,0,3.33.63,7.92,7.92,0,0,0,4.57-1.24,5.33,5.33,0,0,0,2.22-3.63h1.63a7.51,7.51,0,0,1-1,2.73,7,7,0,0,1-1.82,2,8,8,0,0,1-2.52,1.25,10.52,10.52,0,0,1-3.08.43,10.07,10.07,0,0,1-4.08-.79,8.59,8.59,0,0,1-3.07-2.24,10,10,0,0,1-2-3.5,14.85,14.85,0,0,1-.68-4.62,14.44,14.44,0,0,1,.68-4.57,10,10,0,0,1,2-3.47,8.64,8.64,0,0,1,3.08-2.21,10.35,10.35,0,0,1,4.06-.77,9.56,9.56,0,0,1,2.94.45,9,9,0,0,1,2.51,1.26,8,8,0,0,1,1.87,1.93,7.11,7.11,0,0,1,1.06,2.48Z" transform="translate(-137.31 -159.2)"/><path class="cls-4" d="M341.43,196.19h-1.58V185.54H326.66v10.65H325.1V174.8h1.56V184h13.19V174.8h1.58Z" transform="translate(-137.31 -159.2)"/><path class="cls-4" d="M349.76,196.19H348.2V174.8h1.56Z" transform="translate(-137.31 -159.2)"/><path class="cls-4" d="M371.2,176.37h-7.48v19.82h-1.56V176.37h-7.41V174.8H371.2Z" transform="translate(-137.31 -159.2)"/><path class="cls-4" d="M391,196.19H375.59V174.8h14.92v1.57H377.15v7.91h12.52v1.56H377.15v8.79H391Z" transform="translate(-137.31 -159.2)"/><path class="cls-4" d="M411.87,180.53a5.06,5.06,0,0,0-.8-1.79,6,6,0,0,0-1.47-1.45,7,7,0,0,0-2-1,8.11,8.11,0,0,0-2.45-.36,9.07,9.07,0,0,0-3.37.61,6.78,6.78,0,0,0-2.58,1.79,8.17,8.17,0,0,0-1.64,2.95,13.43,13.43,0,0,0-.57,4.11,13.61,13.61,0,0,0,.57,4.13,8.49,8.49,0,0,0,1.64,3,7,7,0,0,0,2.56,1.83,8.52,8.52,0,0,0,3.33.63,7.92,7.92,0,0,0,4.57-1.24,5.37,5.37,0,0,0,2.23-3.63h1.62a7.51,7.51,0,0,1-1,2.73,7,7,0,0,1-1.81,2,8,8,0,0,1-2.52,1.25,10.54,10.54,0,0,1-3.09.43,10,10,0,0,1-4.07-.79,8.62,8.62,0,0,1-3.08-2.24,10,10,0,0,1-1.95-3.5,14.56,14.56,0,0,1-.68-4.62,14.16,14.16,0,0,1,.68-4.57,9.81,9.81,0,0,1,2-3.47,8.59,8.59,0,0,1,3.09-2.21,10.26,10.26,0,0,1,4.05-.77,9.52,9.52,0,0,1,2.94.45,8.83,8.83,0,0,1,2.51,1.26,7.79,7.79,0,0,1,1.87,1.93,7.11,7.11,0,0,1,1.06,2.48Z" transform="translate(-137.31 -159.2)"/><path class="cls-4" d="M433.48,176.37H426v19.82h-1.56V176.37H417V174.8h16.44Z" transform="translate(-137.31 -159.2)"/><path class="cls-4" d="M445.7,196.58a13.85,13.85,0,0,1-3.79-.46,7.74,7.74,0,0,1-2.72-1.31,5.64,5.64,0,0,1-1.69-2.05,7.26,7.26,0,0,1-.69-2.7h1.55a5.89,5.89,0,0,0,.88,2.4,5,5,0,0,0,1.59,1.52,6.4,6.4,0,0,0,2.16.8,13.12,13.12,0,0,0,2.57.24,9.68,9.68,0,0,0,2.57-.31,6.08,6.08,0,0,0,2-.87,4.09,4.09,0,0,0,1.24-1.39,4.27,4.27,0,0,0,.05-3.63,3.18,3.18,0,0,0-1.25-1.28,9.41,9.41,0,0,0-2.31-1c-1-.29-2.15-.58-3.56-.88a19,19,0,0,1-3-.9,8,8,0,0,1-2.08-1.18,4.2,4.2,0,0,1-1.21-1.54,4.89,4.89,0,0,1-.39-2,5,5,0,0,1,.52-2.29,5.31,5.31,0,0,1,1.5-1.78,7.41,7.41,0,0,1,2.32-1.15,10.51,10.51,0,0,1,3-.41,11.38,11.38,0,0,1,3,.38,7.86,7.86,0,0,1,2.39,1.11,5.88,5.88,0,0,1,1.66,1.75,6.08,6.08,0,0,1,.81,2.35h-1.5a5.22,5.22,0,0,0-.71-1.6,4.51,4.51,0,0,0-1.26-1.28,5.94,5.94,0,0,0-1.83-.84A9,9,0,0,0,445,176a7.46,7.46,0,0,0-4.35,1.06,3.37,3.37,0,0,0-1.47,2.89,3.62,3.62,0,0,0,.27,1.46,2.81,2.81,0,0,0,.93,1.13,6.46,6.46,0,0,0,1.73.88,20.78,20.78,0,0,0,2.67.71l1.94.41c.66.14,1.31.31,1.94.51a11.37,11.37,0,0,1,1.81.72,6,6,0,0,1,1.49,1,5,5,0,0,1,1,1.5,5.19,5.19,0,0,1,.38,2.06,5.55,5.55,0,0,1-.58,2.51,6,6,0,0,1-1.6,2,7.29,7.29,0,0,1-2.44,1.29A9.84,9.84,0,0,1,445.7,196.58Z" transform="translate(-137.31 -159.2)"/></svg>